<svg width="208" height="219" viewBox="0 0 208 219" fill="none" xmlns="http://www.w3.org/2000/svg">
<path d="M49.408 135H20.608L1.792 62.04H26.368L36.096 115.672H36.736L47.104 62.04H71.168L81.792 115.672H82.176L92.032 62.04H115.584L96.768 135H68.096L59.392 88.408H58.624L49.408 135Z" fill="white"/>
<path d="M143.96 78.76C143.96 80.72 144.94 82.26 146.9 83.38C148.953 84.5 152.127 85.7133 156.42 87.02C161.553 88.7 165.753 90.3333 169.02 91.92C172.38 93.5067 175.273 95.98 177.7 99.34C180.22 102.7 181.48 107.087 181.48 112.5C181.48 129.86 170.187 138.54 147.6 138.54C143.867 138.54 139.293 138.213 133.88 137.56C128.56 136.907 123.707 136.067 119.32 135.04C119.507 133.08 119.88 130.233 120.44 126.5C121.093 122.673 121.7 119.827 122.26 117.96C125.527 118.427 130.427 118.987 136.96 119.64C143.587 120.293 148.58 120.62 151.94 120.62C153.9 120.62 155.067 120.48 155.44 120.2C156 119.827 156.42 119.22 156.7 118.38C157.073 117.447 157.26 116.653 157.26 116C157.26 114.133 156.373 112.733 154.6 111.8C152.827 110.773 149.793 109.56 145.5 108.16C140.367 106.573 136.12 104.94 132.76 103.26C129.4 101.58 126.46 98.9667 123.94 95.42C121.42 91.8733 120.16 87.2067 120.16 81.42C120.16 77.3133 121.093 73.3 122.96 69.38C124.827 65.3667 126.74 62.66 128.7 61.26C130.193 60.2333 133.273 59.2533 137.94 58.32C142.607 57.3867 146.993 56.92 151.1 56.92C161.553 56.92 170.093 57.9 176.72 59.86C176.627 61.7267 176.3 64.2933 175.74 67.56C175.273 70.8267 174.76 73.8133 174.2 76.52L170.98 76.38C158.847 75.54 151.1 75.12 147.74 75.12C146.34 75.12 145.547 75.1667 145.36 75.26C144.987 75.4467 144.66 75.8667 144.38 76.52C144.1 77.1733 143.96 77.92 143.96 78.76Z" fill="#026FFF"/>
</svg>
